<?xml version="1.0" encoding="iso-8859-1"?>
<!-- Generator: Adobe Illustrator 15.0.0, SVG Export Plug-In . SVG Version: 6.00 Build 0)  -->
<!DOCTYPE svg PUBLIC "-//W3C//DTD SVG 1.1//EN" "http://www.w3.org/Graphics/SVG/1.1/DTD/svg11.dtd">
<svg version="1.1" id="&#x30EC;&#x30A4;&#x30E4;&#x30FC;_1"
	 xmlns="http://www.w3.org/2000/svg" xmlns:xlink="http://www.w3.org/1999/xlink" x="0px" y="0px" width="141.732px"
	 height="141.731px" viewBox="0 0 141.732 141.731" style="enable-background:new 0 0 141.732 141.731;" xml:space="preserve">
<g>
	<rect x="13.907" y="20.552" style="fill-rule:evenodd;clip-rule:evenodd;fill:#CBB07E;" width="113.918" height="103.882"/>
	<path style="fill-rule:evenodd;clip-rule:evenodd;fill:#C7A870;" d="M13.907,20.552v6.238h113.918v-6.238H13.907z M13.907,32.215
		v5.425h113.918v-5.425H13.907z M13.907,43.064v5.425h113.918v-5.425H13.907z M13.907,53.914v5.425h113.918v-5.425H13.907z
		 M13.907,64.763v5.425h113.918v-5.425H13.907z M13.907,75.612v5.425h113.918v-5.425H13.907z M13.907,86.462v5.425h113.918v-5.425
		H13.907z M13.907,97.312v5.424h113.918v-5.424H13.907z M13.907,108.161v5.425h113.918v-5.425H13.907z M13.907,119.01v5.425h113.918
		v-5.425H13.907z"/>
	<rect x="24.756" y="64.763" style="fill-rule:evenodd;clip-rule:evenodd;fill:#966B54;" width="32.548" height="59.671"/>
	<rect x="30.181" y="67.476" style="fill-rule:evenodd;clip-rule:evenodd;fill:#695245;" width="21.699" height="54.247"/>
	<rect x="68.154" y="64.763" style="fill-rule:evenodd;clip-rule:evenodd;fill:#966B54;" width="48.822" height="45.025"/>
	<rect x="70.866" y="67.476" style="fill-rule:evenodd;clip-rule:evenodd;fill:#695245;" width="43.397" height="39.6"/>
	<path style="fill-rule:evenodd;clip-rule:evenodd;fill:#A97B63;" d="M27.469,87.954c0.451,0,0.814,0.363,0.814,0.813v11.663
		c0,0.45-0.363,0.813-0.814,0.813c-0.45,0-0.813-0.363-0.813-0.813V88.768C26.655,88.317,27.019,87.954,27.469,87.954z"/>
	<rect x="26.655" y="90.666" style="fill-rule:evenodd;clip-rule:evenodd;fill:#6F5648;" width="1.627" height="7.866"/>
	<path style="fill-rule:evenodd;clip-rule:evenodd;fill:#8A624D;" d="M79.196,97.583h27.01c0.406,0,0.735,0.29,0.735,0.65v1.953
		c0,0.36-0.329,0.65-0.735,0.65h-27.01c-0.406,0-0.735-0.29-0.735-0.65v-1.953C78.46,97.873,78.79,97.583,79.196,97.583z"/>
	<rect x="91.48" y="100.837" style="fill-rule:evenodd;clip-rule:evenodd;fill:#7E5A47;" width="2.713" height="6.238"/>
	<path style="fill-rule:evenodd;clip-rule:evenodd;fill:#EBEBEB;" d="M98.803,95.006c0,1.123,1.093,2.034,2.441,2.034
		c1.348,0,2.44-0.911,2.44-2.034c0-0.239-0.049-0.466-0.138-0.679h-4.606C98.852,94.54,98.803,94.767,98.803,95.006z"/>
	<path style="fill-rule:evenodd;clip-rule:evenodd;fill:#EBEBEB;" d="M97.718,96.973c0,0.336,1.519,0.61,3.391,0.61
		c1.871,0,3.39-0.274,3.39-0.61c0-0.071-0.067-0.142-0.192-0.204h-6.396C97.787,96.831,97.718,96.901,97.718,96.973z"/>
	<polygon style="fill-rule:evenodd;clip-rule:evenodd;fill:#786458;" points="30.181,75.735 30.181,96.46 51.88,74.604 
		51.88,67.476 38.38,67.476 	"/>
	<polygon style="fill-rule:evenodd;clip-rule:evenodd;fill:#786458;" points="70.866,76.006 70.866,96.731 99.91,67.476 
		79.333,67.476 	"/>
	<polygon style="fill-rule:evenodd;clip-rule:evenodd;fill:#966B54;" points="70.866,86.733 70.866,87.818 80.902,87.818 
		80.902,107.075 81.987,107.075 81.987,87.818 92.293,87.818 92.293,107.075 93.378,107.075 93.378,87.818 103.685,87.818 
		103.685,107.075 104.77,107.075 104.77,87.818 114.263,87.818 114.263,86.733 104.77,86.733 104.77,67.205 103.685,67.205 
		103.685,86.733 93.378,86.733 93.378,67.205 92.293,67.205 92.293,86.733 81.987,86.733 81.987,67.205 80.902,67.205 
		80.902,86.733 	"/>
	<polygon style="fill-rule:evenodd;clip-rule:evenodd;fill:#A97B63;" points="62.729,89.445 62.729,118.468 62.729,124.435 
		64.899,124.435 64.899,118.468 84.157,118.468 84.157,124.435 86.327,124.435 86.327,118.468 86.327,89.445 	"/>
	<rect x="64.899" y="91.615" style="fill-rule:evenodd;clip-rule:evenodd;fill:#525252;" width="19.258" height="24.683"/>
	<ellipse style="fill-rule:evenodd;clip-rule:evenodd;fill:#D9D9D9;" cx="74.662" cy="98.583" rx="3.799" ry="1.711"/>
	<ellipse style="fill-rule:evenodd;clip-rule:evenodd;fill:#FFFFFF;" cx="74.662" cy="98.478" rx="3.799" ry="1.711"/>
	<path style="fill-rule:evenodd;clip-rule:evenodd;fill:#525252;" d="M73.109,98.586c0,0.353,0.694,0.737,1.555,0.737
		c0.856,0,1.551-0.385,1.551-0.737l-0.002-0.043c-0.055,0.331-0.727,0.491-1.549,0.491s-1.494-0.16-1.552-0.491L73.109,98.586z"/>
	<path style="fill-rule:evenodd;clip-rule:evenodd;fill:#FFFFFF;" d="M72.204,95.809c-0.174-0.171-0.404-0.302-0.404-0.296
		c-0.694-0.284-1.069,0.266-1.08,0.287c-0.399,0.671,0.282,1.181,0.282,1.181l1.795,1.169c0.36,0.526,0.936,0.928,1.853,0.928h0.006
		c2.658-0.003,2.441-3.363,2.441-3.363c0-0.615-1.094-1.115-2.444-1.115s-2.446,0.5-2.446,1.115L72.204,95.809z M72.477,97.523
		c-0.478-0.317-1.271-0.809-1.288-0.822c-0.466-0.345-0.185-0.67-0.192-0.67c0.466-0.496,0.946-0.076,1.226,0.284
		C72.25,96.655,72.318,97.095,72.477,97.523z"/>
	<path style="fill-rule:evenodd;clip-rule:evenodd;fill:#525252;" d="M72.621,96.123c0.402,0.31,1.161,0.519,2.032,0.519
		c0.87,0,1.63-0.209,2.031-0.519c0.009-0.032,0.014-0.065,0.014-0.1c0-0.513-0.917-0.929-2.045-0.929
		c-1.129,0-2.046,0.416-2.046,0.929C72.607,96.058,72.613,96.091,72.621,96.123z"/>
	<path style="fill-rule:evenodd;clip-rule:evenodd;fill:#FFFFFF;" d="M71.65,105.372c-0.116,0.044-0.309,0.079-0.482,0.079
		c-0.534,0-0.879-0.369-0.879-1.077c0-0.765,0.398-1.099,0.876-1.099c0.209,0,0.369,0.05,0.48,0.104l0.138-0.54
		c-0.095-0.043-0.328-0.104-0.662-0.104c-0.854,0-1.611,0.479-1.611,1.683c0,0.94,0.488,1.573,1.532,1.573
		c0.328,0,0.586-0.052,0.699-0.096L71.65,105.372z"/>
	<path style="fill-rule:evenodd;clip-rule:evenodd;fill:#FFFFFF;" d="M73.131,104.643l0.149-0.624
		c0.037-0.189,0.092-0.479,0.135-0.672h0.008c0.041,0.192,0.098,0.475,0.139,0.661l0.145,0.635H73.131z M73.917,102.787h-0.941
		l-0.862,3.152h0.751l0.18-0.757h0.751l0.19,0.757h0.768L73.917,102.787z"/>
	<polygon style="fill-rule:evenodd;clip-rule:evenodd;fill:#FFFFFF;" points="76.011,105.939 76.011,104.635 76.999,104.635 
		76.999,104.093 76.011,104.093 76.011,103.347 77.07,103.347 77.07,102.804 75.306,102.804 75.306,105.939 	"/>
	<polygon style="fill-rule:evenodd;clip-rule:evenodd;fill:#FFFFFF;" points="79.545,105.381 78.417,105.381 78.417,104.564 
		79.426,104.564 79.426,104.024 78.417,104.024 78.417,103.347 79.48,103.347 79.48,102.804 77.709,102.804 77.709,105.923 
		79.545,105.923 	"/>
	<path style="fill-rule:evenodd;clip-rule:evenodd;fill:#FFFFFF;" d="M68.639,108.432h2.555c0.12,0,0.214,0.122,0.214,0.271
		s-0.095,0.271-0.214,0.271h-2.555c-0.119,0-0.214-0.122-0.214-0.271S68.52,108.432,68.639,108.432z"/>
	<path style="fill-rule:evenodd;clip-rule:evenodd;fill:#FFFFFF;" d="M75.691,108.432h2.556c0.119,0,0.214,0.122,0.214,0.271
		s-0.095,0.271-0.214,0.271h-2.556c-0.119,0-0.214-0.122-0.214-0.271S75.572,108.432,75.691,108.432z"/>
	<path style="fill-rule:evenodd;clip-rule:evenodd;fill:#FFFFFF;" d="M68.639,110.331h2.555c0.12,0,0.214,0.121,0.214,0.271
		s-0.095,0.271-0.214,0.271h-2.555c-0.119,0-0.214-0.122-0.214-0.271S68.52,110.331,68.639,110.331z"/>
	<path style="fill-rule:evenodd;clip-rule:evenodd;fill:#FFFFFF;" d="M75.691,110.331h2.556c0.119,0,0.214,0.121,0.214,0.271
		s-0.095,0.271-0.214,0.271h-2.556c-0.119,0-0.214-0.122-0.214-0.271S75.572,110.331,75.691,110.331z"/>
	<path style="fill-rule:evenodd;clip-rule:evenodd;fill:#FFFFFF;" d="M68.639,112.229h2.555c0.12,0,0.214,0.122,0.214,0.271
		c0,0.148-0.095,0.271-0.214,0.271h-2.555c-0.119,0-0.214-0.122-0.214-0.271C68.425,112.352,68.52,112.229,68.639,112.229z"/>
	<path style="fill-rule:evenodd;clip-rule:evenodd;fill:#FFFFFF;" d="M75.691,112.229h2.556c0.119,0,0.214,0.122,0.214,0.271
		c0,0.148-0.095,0.271-0.214,0.271h-2.556c-0.119,0-0.214-0.122-0.214-0.271C75.477,112.352,75.572,112.229,75.691,112.229z"/>
	<path style="fill-rule:evenodd;clip-rule:evenodd;fill:#FFFFFF;" d="M72.32,108.432h1.161c0.054,0,0.098,0.122,0.098,0.271
		s-0.044,0.271-0.098,0.271H72.32c-0.055,0-0.098-0.122-0.098-0.271S72.265,108.432,72.32,108.432z"/>
	<path style="fill-rule:evenodd;clip-rule:evenodd;fill:#FFFFFF;" d="M79.373,108.432h1.16c0.055,0,0.098,0.122,0.098,0.271
		s-0.043,0.271-0.098,0.271h-1.16c-0.055,0-0.099-0.122-0.099-0.271S79.318,108.432,79.373,108.432z"/>
	<path style="fill-rule:evenodd;clip-rule:evenodd;fill:#FFFFFF;" d="M72.32,110.331h1.161c0.054,0,0.098,0.121,0.098,0.271
		s-0.044,0.271-0.098,0.271H72.32c-0.055,0-0.098-0.122-0.098-0.271S72.265,110.331,72.32,110.331z"/>
	<path style="fill-rule:evenodd;clip-rule:evenodd;fill:#FFFFFF;" d="M79.373,110.331h1.16c0.055,0,0.098,0.121,0.098,0.271
		s-0.043,0.271-0.098,0.271h-1.16c-0.055,0-0.099-0.122-0.099-0.271S79.318,110.331,79.373,110.331z"/>
	<path style="fill-rule:evenodd;clip-rule:evenodd;fill:#FFFFFF;" d="M72.32,112.229h1.161c0.054,0,0.098,0.122,0.098,0.271
		c0,0.148-0.044,0.271-0.098,0.271H72.32c-0.055,0-0.098-0.122-0.098-0.271C72.222,112.352,72.265,112.229,72.32,112.229z"/>
	<path style="fill-rule:evenodd;clip-rule:evenodd;fill:#FFFFFF;" d="M79.373,112.229h1.16c0.055,0,0.098,0.122,0.098,0.271
		c0,0.148-0.043,0.271-0.098,0.271h-1.16c-0.055,0-0.099-0.122-0.099-0.271C79.274,112.352,79.318,112.229,79.373,112.229z"/>
	<rect x="12.822" y="17.297" style="fill-rule:evenodd;clip-rule:evenodd;fill:#966B54;" width="116.087" height="3.255"/>
	<path style="fill-rule:evenodd;clip-rule:evenodd;fill:#FFFFFF;" d="M39.325,45.813c0,2.522,4.632,4.564,10.345,4.564
		c5.715,0,10.348-2.042,10.348-4.564c0-1.486-1.611-2.805-4.102-3.64c0.505-1.964,0.388-3.729,0.388-3.729
		c0-1.641-2.981-2.973-6.662-2.973c-3.678,0-6.659,1.332-6.659,2.973c0,0-0.008,0.089-0.011,0.255
		c-0.472-0.458-1.101-0.806-1.099-0.792c-1.896-0.759-2.913,0.71-2.946,0.771c-1.082,1.785,0.773,3.144,0.773,3.144l1.836,1.171
		C40.152,43.767,39.325,44.749,39.325,45.813z M43.376,42.191c-0.295,0.098-0.578,0.206-0.846,0.317
		c-1.131-0.706-2.289-1.408-2.322-1.435c-1.269-0.919-0.504-1.787-0.523-1.785c1.272-1.326,2.574-0.201,3.333,0.762
		C43.073,40.67,43.176,41.416,43.376,42.191z"/>
	<path style="fill-rule:evenodd;clip-rule:evenodd;fill:#966B54;" d="M44.106,39.536c1.093,0.824,3.163,1.383,5.536,1.383
		c2.376,0,4.446-0.559,5.539-1.383c0.022-0.087,0.033-0.179,0.033-0.269c0-1.367-2.495-2.477-5.571-2.477
		c-3.076,0-5.568,1.109-5.568,2.477C44.074,39.357,44.084,39.449,44.106,39.536z"/>
	<path style="fill-rule:evenodd;clip-rule:evenodd;fill:#966B54;" d="M45.438,45.831c0,0.938,1.896,1.969,4.231,1.969
		c2.338,0,4.231-1.031,4.231-1.969c0-0.041-0.002-0.079-0.008-0.117c-0.149,0.884-1.983,1.31-4.223,1.31
		c-2.238,0-4.071-0.426-4.221-1.31C45.443,45.752,45.438,45.791,45.438,45.831z"/>
	<path style="fill-rule:evenodd;clip-rule:evenodd;fill:#FFFFFF;" d="M72.944,47.046c-0.439,0.173-1.172,0.312-1.823,0.312
		c-2.034,0-3.336-1.457-3.336-4.25c0-3.019,1.513-4.337,3.32-4.337c0.797,0,1.399,0.19,1.822,0.399l0.521-2.132
		c-0.358-0.174-1.237-0.404-2.507-0.404c-3.238,0-6.108,1.891-6.108,6.648c0,3.713,1.85,6.214,5.815,6.214
		c1.237,0,2.213-0.201,2.653-0.372L72.944,47.046z"/>
	<path style="fill-rule:evenodd;clip-rule:evenodd;fill:#FFFFFF;" d="M78.564,44.166l0.562-2.468
		c0.144-0.749,0.353-1.896,0.513-2.656h0.029c0.16,0.76,0.369,1.875,0.529,2.618l0.545,2.506H78.564z M81.542,36.842h-3.57
		l-3.266,12.444h2.851l0.671-2.984h2.85l0.719,2.984h2.914L81.542,36.842z"/>
	<polygon style="fill-rule:evenodd;clip-rule:evenodd;fill:#FFFFFF;" points="89.484,49.287 89.484,44.133 93.226,44.133 
		93.226,41.996 89.484,41.996 89.484,39.042 93.487,39.042 93.487,36.905 86.803,36.905 86.803,49.287 	"/>
	<polygon style="fill-rule:evenodd;clip-rule:evenodd;fill:#FFFFFF;" points="102.877,47.087 98.597,47.087 98.597,43.862 
		102.421,43.862 102.421,41.725 98.597,41.725 98.597,39.042 102.633,39.042 102.633,36.905 95.917,36.905 95.917,49.225 
		102.877,49.225 	"/>
	<path style="fill-rule:evenodd;clip-rule:evenodd;fill:#775B4D;" d="M38.318,18.382c-0.298,0-0.542,0.32-0.542,0.71v2.002h1.085
		v-2.002C38.861,18.702,38.617,18.382,38.318,18.382z"/>
	<path style="fill-rule:evenodd;clip-rule:evenodd;fill:#695245;" d="M40.217,25.665c0-1.137-0.353-2.132-0.887-2.699h-2.023
		c-0.535,0.567-0.887,1.562-0.887,2.699c0,0.252,0.017-0.043,0.052,0.192c0.838,0.353,2.189,0.662,3.694,0.008
		C40.198,25.627,40.217,25.92,40.217,25.665z"/>
	<rect x="37.504" y="21.095" style="fill-rule:evenodd;clip-rule:evenodd;fill:#6F5648;" width="1.627" height="1.898"/>
	<path style="fill-rule:evenodd;clip-rule:evenodd;fill:#775B4D;" d="M70.866,18.382c-0.298,0-0.542,0.32-0.542,0.71v2.002h1.085
		v-2.002C71.409,18.702,71.165,18.382,70.866,18.382z"/>
	<path style="fill-rule:evenodd;clip-rule:evenodd;fill:#695245;" d="M72.765,25.665c0-1.137-0.354-2.132-0.887-2.699h-2.024
		c-0.534,0.567-0.887,1.562-0.887,2.699c0,0.252,0.016-0.043,0.051,0.192c0.838,0.353,2.189,0.662,3.694,0.008
		C72.746,25.627,72.765,25.92,72.765,25.665z"/>
	<rect x="70.052" y="21.095" style="fill-rule:evenodd;clip-rule:evenodd;fill:#6F5648;" width="1.628" height="1.898"/>
	<path style="fill-rule:evenodd;clip-rule:evenodd;fill:#775B4D;" d="M103.415,18.382c-0.299,0-0.543,0.32-0.543,0.71v2.002h1.085
		v-2.002C103.957,18.702,103.712,18.382,103.415,18.382z"/>
	<path style="fill-rule:evenodd;clip-rule:evenodd;fill:#695245;" d="M105.313,25.665c0-1.137-0.353-2.132-0.888-2.699h-2.022
		c-0.534,0.567-0.888,1.562-0.888,2.699c0,0.252,0.017-0.043,0.052,0.192c0.839,0.353,2.188,0.662,3.694,0.008
		C105.294,25.627,105.313,25.92,105.313,25.665z"/>
	<rect x="102.601" y="21.095" style="fill-rule:evenodd;clip-rule:evenodd;fill:#6F5648;" width="1.627" height="1.898"/>
</g>
</svg>
